<svg width="215" height="63" viewBox="0 0 215 63" fill="none" xmlns="http://www.w3.org/2000/svg">
<path fill-rule="evenodd" clip-rule="evenodd" d="M24.4845 39.9985C24.4845 46.3901 19.239 51.6356 12.671 51.6356C10.423 51.6356 7.95449 50.8862 6.14721 49.652V51.1507H0.637207V21H6.14721V30.4331C8.08673 29.0666 10.3789 28.4054 12.671 28.4054C19.239 28.4054 24.4845 33.5187 24.4845 39.9985ZM6.14721 39.9985C6.14721 43.4808 9.10057 46.4782 12.671 46.4782C16.2415 46.4782 19.1949 43.4808 19.1949 39.9985C19.1949 36.5162 16.2415 33.5187 12.671 33.5187C9.10057 33.5187 6.14721 36.5162 6.14721 39.9985ZM35.6808 51.3711C38.1493 51.3711 40.2651 50.6218 41.7638 49.3434V51.1507H47.2738V28.6258H41.7638V41.1005C41.7638 44.3183 39.9125 46.2578 36.8269 46.2578C32.7115 46.2578 31.9594 43.8737 31.9347 39.2729L31.934 28.6258H26.424V40.4393C26.424 47.0954 28.9366 51.3711 35.6808 51.3711ZM63.319 49.6961C61.0268 56.837 59.3077 59.3055 55.1642 59.3055C53.8858 59.3055 52.0786 59.0851 51.0647 58.6884L51.8582 53.531C52.6957 53.7074 53.445 53.7514 53.8858 53.7514C55.5168 53.7514 56.178 53.0462 56.178 51.7678C56.178 51.0185 56.0017 50.3573 55.1642 47.7125L48.9489 28.6258H54.7674L59.5281 44.0538L64.3769 28.6258H70.0632L63.319 49.6961Z" fill="#E02020"/>
<path fill-rule="evenodd" clip-rule="evenodd" d="M110.276 12.5216V7H104.755V12.5216H110.276ZM75.7444 45.0816C83.7638 45.0816 87.7079 40.8746 87.7079 34.2575V14.5813H82.2301V16.378C80.3019 15.0195 78.0231 14.3621 75.7444 14.3621C69.2149 14.3621 64 19.4455 64 25.8874C64 32.3731 69.2149 37.4127 75.7444 37.4127C77.9793 37.4127 80.2581 36.7115 82.2301 35.1339C82.2301 38.2453 78.8119 39.9982 75.7444 39.9982C73.378 39.9982 69.3909 39.0127 67.1332 37.7328L65.6426 42.4315C68.3596 43.8777 72.4577 45.0816 75.7444 45.0816ZM75.7444 32.3293C72.1948 32.3293 69.2587 29.3494 69.2587 25.8874C69.2587 22.4254 72.1948 19.4455 75.7444 19.4455C79.294 19.4455 82.2301 22.4254 82.2301 25.8874C82.2301 29.3494 79.294 32.3293 75.7444 32.3293ZM96.2094 25.5806V36.9744H90.6878V14.5813H96.2094V16.7285C97.9184 15.0195 99.8466 14.406 102.827 14.3621L102.476 20.1905C97.4364 20.1905 96.2094 21.9872 96.2094 25.5806ZM110.276 14.5813V36.9744H104.755V14.5813H110.276ZM124.037 37.4565C126.271 37.4565 128.726 36.7115 130.522 35.4845V36.9744H136V7H130.522V16.378C128.594 15.0195 126.315 14.3621 124.037 14.3621C117.507 14.3621 112.292 19.4455 112.292 25.8874C112.292 32.2416 117.507 37.4565 124.037 37.4565ZM117.551 25.8874C117.551 29.3494 120.487 32.3293 124.037 32.3293C127.586 32.3293 130.522 29.3494 130.522 25.8874C130.522 22.4254 127.586 19.4455 124.037 19.4455C120.487 19.4455 117.551 22.4254 117.551 25.8874Z" fill="black"/>
<path d="M143 3V8.41333H0V3H143Z" fill="black"/>
<path d="M154.528 4.82C154.528 4.044 154.82 3.452 155.404 3.044C155.988 2.636 156.72 2.432 157.6 2.432C158.656 2.432 159.564 2.648 160.324 3.08V4.76C159.612 4.248 158.748 4 157.732 4.016C156.82 4.032 156.364 4.292 156.364 4.796C156.364 5.02 156.476 5.216 156.7 5.384C156.932 5.552 157.216 5.688 157.552 5.792C157.896 5.888 158.264 6.016 158.656 6.176C159.056 6.328 159.424 6.496 159.76 6.68C160.104 6.856 160.388 7.12 160.612 7.472C160.844 7.824 160.96 8.232 160.96 8.696C160.96 9.152 160.872 9.544 160.696 9.872C160.528 10.2 160.288 10.456 159.976 10.64C159.664 10.824 159.32 10.956 158.944 11.036C158.568 11.124 158.148 11.168 157.684 11.168C156.516 11.168 155.48 10.916 154.576 10.412V8.696C155.472 9.288 156.464 9.584 157.552 9.584C158.6 9.584 159.124 9.316 159.124 8.78C159.124 8.54 159.008 8.332 158.776 8.156C158.552 7.972 158.268 7.828 157.924 7.724C157.588 7.612 157.22 7.48 156.82 7.328C156.428 7.168 156.06 7 155.716 6.824C155.38 6.64 155.096 6.376 154.864 6.032C154.64 5.688 154.528 5.284 154.528 4.82ZM165.981 5.24H167.649V11H166.173V10.268C165.653 10.868 165.013 11.168 164.253 11.168C163.501 11.168 162.921 10.948 162.513 10.508C162.113 10.068 161.913 9.5 161.913 8.804V5.24H163.581V8.588C163.581 8.964 163.677 9.248 163.869 9.44C164.061 9.632 164.333 9.728 164.685 9.728C165.197 9.728 165.629 9.484 165.981 8.996V5.24ZM170.539 6.08C171.011 5.408 171.707 5.072 172.627 5.072C173.499 5.072 174.183 5.372 174.679 5.972C175.183 6.564 175.435 7.28 175.435 8.12C175.435 8.96 175.183 9.68 174.679 10.28C174.183 10.872 173.499 11.168 172.627 11.168C171.835 11.168 171.203 10.908 170.731 10.388V13.64H169.063V5.24H170.539V6.08ZM173.323 9.296C173.595 8.976 173.731 8.584 173.731 8.12C173.731 7.656 173.595 7.268 173.323 6.956C173.051 6.636 172.683 6.476 172.219 6.476C171.875 6.476 171.567 6.568 171.295 6.752C171.031 6.936 170.839 7.164 170.719 7.436V8.804C170.839 9.076 171.031 9.304 171.295 9.488C171.567 9.672 171.875 9.764 172.219 9.764C172.683 9.764 173.051 9.608 173.323 9.296ZM178.004 6.08C178.476 5.408 179.172 5.072 180.092 5.072C180.964 5.072 181.648 5.372 182.144 5.972C182.648 6.564 182.9 7.28 182.9 8.12C182.9 8.96 182.648 9.68 182.144 10.28C181.648 10.872 180.964 11.168 180.092 11.168C179.3 11.168 178.668 10.908 178.196 10.388V13.64H176.528V5.24H178.004V6.08ZM180.788 9.296C181.06 8.976 181.196 8.584 181.196 8.12C181.196 7.656 181.06 7.268 180.788 6.956C180.516 6.636 180.148 6.476 179.684 6.476C179.34 6.476 179.032 6.568 178.76 6.752C178.496 6.936 178.304 7.164 178.184 7.436V8.804C178.304 9.076 178.496 9.304 178.76 9.488C179.032 9.672 179.34 9.764 179.684 9.764C180.148 9.764 180.516 9.608 180.788 9.296ZM184.017 2.24H185.685V11H184.017V2.24ZM189.894 9.128L191.322 5.24H193.05L190.494 11.696C189.926 13.096 189.098 13.796 188.01 13.796C187.778 13.796 187.478 13.752 187.11 13.664V12.284C187.374 12.34 187.602 12.368 187.794 12.368C188.402 12.368 188.858 11.948 189.162 11.108L189.174 11.084L186.45 5.24H188.214L189.894 9.128ZM154.432 21.896C154.432 21.16 154.56 20.5 154.816 19.916C155.08 19.324 155.424 18.852 155.848 18.5C156.28 18.148 156.76 17.884 157.288 17.708C157.816 17.524 158.368 17.432 158.944 17.432C159.824 17.432 160.624 17.612 161.344 17.972V19.688C160.776 19.248 160.076 19.028 159.244 19.028C158.428 19.028 157.728 19.272 157.144 19.76C156.568 20.24 156.28 20.952 156.28 21.896C156.28 22.344 156.364 22.744 156.532 23.096C156.7 23.44 156.924 23.716 157.204 23.924C157.492 24.132 157.808 24.292 158.152 24.404C158.504 24.508 158.868 24.56 159.244 24.56C160.172 24.56 160.892 24.328 161.404 23.864V25.628C160.66 25.988 159.848 26.168 158.968 26.168C158.392 26.168 157.84 26.08 157.312 25.904C156.784 25.728 156.3 25.472 155.86 25.136C155.428 24.8 155.08 24.352 154.816 23.792C154.56 23.232 154.432 22.6 154.432 21.896ZM162.56 17.6H164.228V20.768C164.724 20.304 165.3 20.072 165.956 20.072C166.692 20.072 167.264 20.296 167.672 20.744C168.088 21.184 168.296 21.748 168.296 22.436V26H166.628V22.652C166.628 22.276 166.524 21.992 166.316 21.8C166.116 21.608 165.848 21.512 165.512 21.512C164.992 21.512 164.564 21.756 164.228 22.244V26H162.56V17.6ZM174.786 24.512C174.786 24.768 174.922 24.896 175.194 24.896C175.306 24.896 175.41 24.88 175.506 24.848V25.94C175.202 26.052 174.894 26.108 174.582 26.108C173.974 26.108 173.55 25.892 173.31 25.46C172.71 25.932 172.018 26.168 171.234 26.168C170.666 26.168 170.186 26.012 169.794 25.7C169.41 25.38 169.218 24.948 169.218 24.404C169.218 23.948 169.354 23.568 169.626 23.264C169.898 22.96 170.214 22.756 170.574 22.652C170.934 22.54 171.326 22.484 171.75 22.484C172.222 22.484 172.678 22.536 173.118 22.64V22.436C173.118 22.14 173.002 21.904 172.77 21.728C172.538 21.552 172.202 21.464 171.762 21.464C171.122 21.464 170.442 21.608 169.722 21.896V20.456C170.49 20.2 171.234 20.072 171.954 20.072C173.842 20.072 174.786 20.94 174.786 22.676V24.512ZM172.134 23.48C171.79 23.48 171.502 23.544 171.27 23.672C171.038 23.8 170.922 24 170.922 24.272C170.922 24.48 171.006 24.652 171.174 24.788C171.35 24.916 171.566 24.98 171.822 24.98C172.326 24.98 172.758 24.824 173.118 24.512V23.612C172.75 23.524 172.422 23.48 172.134 23.48ZM177.974 26H176.306V20.24H177.974V26ZM178.118 18.332C178.118 18.644 178.026 18.88 177.842 19.04C177.658 19.2 177.422 19.28 177.134 19.28C176.854 19.28 176.622 19.2 176.438 19.04C176.254 18.88 176.162 18.644 176.162 18.332C176.162 18.028 176.254 17.796 176.438 17.636C176.622 17.476 176.854 17.396 177.134 17.396C177.414 17.396 177.646 17.476 177.83 17.636C178.022 17.796 178.118 18.028 178.118 18.332ZM180.887 20.972C181.407 20.372 182.047 20.072 182.807 20.072C183.543 20.072 184.115 20.296 184.523 20.744C184.939 21.184 185.147 21.748 185.147 22.436V26H183.479V22.652C183.479 22.276 183.375 21.992 183.167 21.8C182.967 21.608 182.699 21.512 182.363 21.512C181.843 21.512 181.415 21.756 181.079 22.244V26H179.411V20.24H180.887V20.972ZM154.9 32.6H160.816V34.184H156.7V35.972H160.456V37.544H156.7V39.416H160.888V41H154.9V32.6ZM161.661 38.204C161.661 37.676 161.753 37.204 161.937 36.788C162.129 36.372 162.381 36.044 162.693 35.804C163.005 35.556 163.349 35.372 163.725 35.252C164.101 35.124 164.497 35.06 164.913 35.06C165.577 35.06 166.169 35.2 166.689 35.48V36.944C166.241 36.656 165.729 36.512 165.153 36.512C164.649 36.512 164.225 36.644 163.881 36.908C163.537 37.172 163.365 37.576 163.365 38.12C163.365 38.64 163.537 39.04 163.881 39.32C164.225 39.592 164.641 39.728 165.129 39.728C165.745 39.728 166.285 39.588 166.749 39.308V40.784C166.149 41.04 165.501 41.168 164.805 41.168C163.941 41.168 163.201 40.916 162.585 40.412C161.969 39.9 161.661 39.164 161.661 38.204ZM168.468 40.364C167.852 39.828 167.544 39.08 167.544 38.12C167.544 37.16 167.852 36.412 168.468 35.876C169.084 35.34 169.836 35.072 170.724 35.072C171.62 35.072 172.372 35.34 172.98 35.876C173.596 36.412 173.904 37.16 173.904 38.12C173.904 39.08 173.596 39.828 172.98 40.364C172.372 40.9 171.62 41.168 170.724 41.168C169.836 41.168 169.084 40.9 168.468 40.364ZM171.816 39.248C172.08 38.952 172.212 38.576 172.212 38.12C172.212 37.664 172.08 37.292 171.816 37.004C171.552 36.708 171.188 36.56 170.724 36.56C170.26 36.56 169.896 36.708 169.632 37.004C169.376 37.292 169.248 37.664 169.248 38.12C169.248 38.576 169.376 38.952 169.632 39.248C169.896 39.536 170.26 39.68 170.724 39.68C171.188 39.68 171.552 39.536 171.816 39.248ZM174.741 36.848C174.741 36.232 174.969 35.784 175.425 35.504C175.881 35.216 176.453 35.072 177.141 35.072C177.885 35.072 178.593 35.236 179.265 35.564V36.932C179.017 36.764 178.701 36.624 178.317 36.512C177.941 36.4 177.585 36.344 177.249 36.344C176.713 36.344 176.445 36.496 176.445 36.8C176.445 36.976 176.557 37.12 176.781 37.232C177.005 37.344 177.277 37.444 177.597 37.532C177.917 37.612 178.233 37.712 178.545 37.832C178.865 37.952 179.137 38.144 179.361 38.408C179.585 38.672 179.697 39 179.697 39.392C179.697 39.824 179.569 40.176 179.313 40.448C179.065 40.72 178.753 40.908 178.377 41.012C178.009 41.116 177.577 41.168 177.081 41.168C176.161 41.168 175.397 40.988 174.789 40.628V39.248C175.413 39.656 176.145 39.86 176.985 39.86C177.657 39.86 177.993 39.716 177.993 39.428C177.993 39.26 177.881 39.12 177.657 39.008C177.433 38.896 177.161 38.796 176.841 38.708C176.529 38.62 176.213 38.516 175.893 38.396C175.573 38.268 175.301 38.076 175.077 37.82C174.853 37.556 174.741 37.232 174.741 36.848ZM183.285 39.128L184.713 35.24H186.441L183.885 41.696C183.317 43.096 182.489 43.796 181.401 43.796C181.169 43.796 180.869 43.752 180.501 43.664V42.284C180.765 42.34 180.993 42.368 181.185 42.368C181.793 42.368 182.249 41.948 182.553 41.108L182.565 41.084L179.841 35.24H181.605L183.285 39.128ZM186.8 36.848C186.8 36.232 187.028 35.784 187.484 35.504C187.94 35.216 188.512 35.072 189.2 35.072C189.944 35.072 190.652 35.236 191.324 35.564V36.932C191.076 36.764 190.76 36.624 190.376 36.512C190 36.4 189.644 36.344 189.308 36.344C188.772 36.344 188.504 36.496 188.504 36.8C188.504 36.976 188.616 37.12 188.84 37.232C189.064 37.344 189.336 37.444 189.656 37.532C189.976 37.612 190.292 37.712 190.604 37.832C190.924 37.952 191.196 38.144 191.42 38.408C191.644 38.672 191.756 39 191.756 39.392C191.756 39.824 191.628 40.176 191.372 40.448C191.124 40.72 190.812 40.908 190.436 41.012C190.068 41.116 189.636 41.168 189.14 41.168C188.22 41.168 187.456 40.988 186.848 40.628V39.248C187.472 39.656 188.204 39.86 189.044 39.86C189.716 39.86 190.052 39.716 190.052 39.428C190.052 39.26 189.94 39.12 189.716 39.008C189.492 38.896 189.22 38.796 188.9 38.708C188.588 38.62 188.272 38.516 187.952 38.396C187.632 38.268 187.36 38.076 187.136 37.82C186.912 37.556 186.8 37.232 186.8 36.848ZM193.203 33.56L194.859 33.164V35.24H196.683V36.644H194.859V38.9C194.859 39.476 195.167 39.764 195.783 39.764C196.151 39.764 196.499 39.7 196.827 39.572V40.916C196.347 41.084 195.831 41.168 195.279 41.168C194.671 41.168 194.171 41.012 193.779 40.7C193.395 40.388 193.203 39.896 193.203 39.224V36.644H192.231V35.24H193.203V33.56ZM197.462 38.12C197.462 37.6 197.554 37.14 197.738 36.74C197.922 36.332 198.162 36.012 198.458 35.78C198.762 35.548 199.078 35.372 199.406 35.252C199.742 35.132 200.082 35.072 200.426 35.072C201.002 35.072 201.498 35.18 201.914 35.396C202.338 35.612 202.65 35.892 202.85 36.236C203.05 36.572 203.186 36.956 203.258 37.388C203.338 37.812 203.318 38.236 203.198 38.66H199.142C199.23 39.06 199.462 39.36 199.838 39.56C200.214 39.752 200.658 39.848 201.17 39.848C201.802 39.848 202.382 39.732 202.91 39.5V40.808C202.342 41.048 201.638 41.168 200.798 41.168C199.838 41.168 199.042 40.9 198.41 40.364C197.778 39.828 197.462 39.08 197.462 38.12ZM201.698 37.58C201.738 37.316 201.662 37.044 201.47 36.764C201.278 36.484 200.95 36.344 200.486 36.344C200.118 36.344 199.802 36.456 199.538 36.68C199.274 36.896 199.138 37.196 199.13 37.58H201.698ZM206.017 41H204.349V35.24H205.825V35.912C206.009 35.696 206.261 35.504 206.581 35.336C206.901 35.16 207.261 35.072 207.661 35.072C208.453 35.072 209.041 35.356 209.425 35.924C210.009 35.356 210.649 35.072 211.345 35.072C212.081 35.072 212.621 35.304 212.965 35.768C213.317 36.224 213.493 36.752 213.493 37.352V41H211.837V37.46C211.837 37.164 211.753 36.932 211.585 36.764C211.425 36.596 211.209 36.512 210.937 36.512C210.513 36.512 210.133 36.704 209.797 37.088C209.805 37.144 209.809 37.232 209.809 37.352V41H208.153V37.46C208.153 37.164 208.069 36.932 207.901 36.764C207.741 36.596 207.525 36.512 207.253 36.512C206.781 36.512 206.369 36.744 206.017 37.208V41Z" fill="#E02020"/>
<path d="M143.786 57.5867V63H0.718872V57.5867H143.786Z" fill="#E02020"/>
</svg>
